<?xml version="1.0" encoding="utf-8"?>
<!-- Generator: Adobe Illustrator 25.0.1, SVG Export Plug-In . SVG Version: 6.00 Build 0)  -->
<svg version="1.1" id="Layer_1" xmlns="http://www.w3.org/2000/svg" xmlns:xlink="http://www.w3.org/1999/xlink" x="0px" y="0px"
	 viewBox="0 0 128 128" style="enable-background:new 0 0 128 128;" xml:space="preserve">
<style type="text/css">
	.st0{fill:#3A53A4;}
	.st1{fill:#2A2C7A;}
</style>
<rect width="128" height="128"/>
<path class="st0" d="M114.15,61.78c-5.65,1.41-8.47,2.11-14.1,3.54c0.15,13.14,0.23,19.72,0.38,32.85l-9-0.1l-3.48-3.44
	c-0.14-16.35-0.22-27.25-0.33-39.94c0-6.42-0.11-13.3-0.18-21.57c1.34-1.34,2.01-2.01,3.34-3.37l8.85,0.11l0.25,21.35
	c5.62-1.43,8.44-2.13,14.05-3.53c-0.2-12.68-0.28-19.03-0.48-31.72c-10.47-0.18-15.7-0.25-26.16-0.35
	c-5.55,5.6-8.32,8.38-13.92,13.99c0,9.58,0.09,17.48,0.12,24.89c0.07,13.71,0.14,25.68,0.22,43.41l14.39,14.21
	c10.72,0.1,16.09,0.16,26.81,0.33C114.61,92.2,114.45,82.05,114.15,61.78z"/>
<path class="st1" d="M114.15,61.78c0.3,20.28,0.46,30.42,0.76,50.69c-10.72-0.17-16.02-0.23-26.81-0.33L73.72,97.9
	c-0.09-17.74-0.15-29.71-0.22-43.41c4.73,0,9.43,0.1,14.13,0.18c0.11,12.68,0.2,23.59,0.33,39.94l3.48,3.44l9,0.1
	c-0.15-13.15-0.23-19.72-0.38-32.85C105.68,63.88,108.5,63.18,114.15,61.78z"/>
<path class="st0" d="M88.29,18.08c9.16,0.09,14.34,0.15,22.77,0.28c0.07,5.19,0.14,9.33,0.2,13.47c0.06,4.14,0.12,8.54,0.21,13.95
	l-9.18,2.31l-0.21-18.26v-2.38h-2.38h-0.1l-8.76-0.11h-1.02l-0.73,0.73l-1.68,1.69l-1.66,1.68l-0.71,0.73v1.23
	c0.06,8.16,0.12,14.98,0.17,21.35l0.07,8.83c0.09,9.34,0.17,18.64,0.27,31.1v1.01l0.7,0.7l1.74,1.73l1.74,1.71l0.7,0.7h0.99h2.55
	h6.43h2.47v-2.47c-0.07-6.58-0.14-11.51-0.18-16.44c0-4.43-0.11-8.86-0.17-14.5l9.26-2.32l0.35,22.55l0.33,22.57
	c-8.83-0.15-14.11-0.21-23.32-0.3c-5.09-5.02-7.93-7.82-12.97-12.81c-0.09-17.18-0.15-28.97-0.21-42.4v-8.39l-0.07-15.48
	c4.93-4.93,7.63-7.65,12.47-12.54 M87.34,15.54c-5.55,5.6-8.32,8.38-13.92,13.99c0,9.58,0.09,17.48,0.12,24.89
	c0.07,13.71,0.14,25.68,0.22,43.41l14.39,14.21c10.72,0.1,16.09,0.16,26.81,0.33c-0.31-20.27-0.47-30.41-0.76-50.69
	c-5.65,1.41-8.47,2.11-14.1,3.54c0.15,13.14,0.23,19.72,0.38,32.85l-9-0.1l-3.48-3.44c-0.14-16.35-0.22-27.25-0.33-39.94
	c0-6.42-0.11-13.3-0.18-21.57c1.34-1.34,2.01-2.01,3.34-3.37l8.85,0.11l0.25,21.35c5.62-1.43,8.44-2.13,14.05-3.53
	c-0.2-12.68-0.28-19.03-0.48-31.72C103.03,15.7,97.79,15.64,87.34,15.54L87.34,15.54z"/>
<path class="st0" d="M58.92,15.54c-5.33,0.3-8.01,0.47-13.34,0.81c-0.57,9.81-0.86,14.72-1.45,24.53
	c-4.77,1.56-7.16,2.35-11.94,3.94c0.72-11.08,1.05-16.65,1.76-27.69c-5.33,0.37-8,0.57-13.33,0.98c-0.86,12.52-1.3,18.78-2.17,31.31
	l-4.41,1.49c-0.38,5.44-0.58,8.17-0.97,13.61l4.44-1.49c-0.18,2.56-0.35,4.96-0.5,7.24c-1.03,14.82-1.68,24.31-2.84,41.05
	c5.54-0.43,8.32-0.63,13.86-1.01c0.92-14.4,1.83-28.81,2.74-43.22c0.18-2.9,0.37-5.79,0.55-8.69c4.81-1.59,7.24-2.37,12.02-3.94
	c-0.2,3.42-0.4,6.84-0.6,10.26c-0.87,14.91-1.74,29.82-2.61,44.74c5.56-0.35,8.33-0.53,13.88-0.85c0.81-15.39,1.62-30.78,2.42-46.17
	c0.09-1.69,0.18-3.37,0.27-5.07l-5.49-5.47l5.87-1.88C57.83,36.25,58.19,29.34,58.92,15.54z"/>
<path class="st1" d="M17.02,70.26c4.34-1.11,8.93-2.16,13.75-3.18c-0.91,14.4-1.83,28.81-2.74,43.22
	c-5.54,0.38-8.32,0.59-13.86,1.01C15.34,94.56,16,85.07,17.02,70.26z"/>
<path class="st1" d="M42.76,64.74c4.4-0.79,8.97-1.55,13.69-2.29c-0.81,15.39-1.62,30.78-2.42,46.17c-5.55,0.33-8.32,0.5-13.88,0.85
	C41.02,94.56,41.89,79.65,42.76,64.74z"/>
<path class="st0" d="M57.41,17.06c-0.33,6.25-0.59,11.09-0.84,15.92c-0.25,4.84-0.51,9.68-0.84,15.97l-1.01,0.33l-3.91,1.29
	l-2.23,0.72l1.65,1.66l3.92,3.9l1.12,1.11c0,0.63-0.07,1.26-0.1,1.89l-0.13,2.53l-1.21,23.03l-1.15,21.86
	c-4.3,0.25-6.95,0.42-10.99,0.68c0.39-6.67,0.77-13.34,1.17-20.01l1.35-23.12l0.3-5.02l0.3-5.23l0.12-2.09l-1.99,0.65
	c-4.8,1.56-7.24,2.35-12.02,3.94l-0.92,0.3l-0.06,0.96c-0.09,1.45-0.18,2.9-0.28,4.34c-0.09,1.45-0.18,2.9-0.28,4.34
	C28.49,81.02,27.6,95.01,26.71,109c-4.22,0.29-6.88,0.49-10.98,0.8l0.88-12.72c0.63-9.05,1.15-16.65,1.85-26.68l0.2-2.9l0.3-4.34
	l0.14-2.14l-2.03,0.68l-2.4,0.8c0.28-3.84,0.46-6.41,0.72-10.52c1.22-0.42,2.06-0.72,3.5-1.19l0.9-0.3l0.07-0.96l1.09-15.66l1-14.42
	c4-0.3,6.51-0.49,10.46-0.77c-0.64,10.02-0.99,15.53-1.66,26.06l-0.13,2.11l2-0.67l0.59-0.2c4.34-1.45,6.78-2.25,11.36-3.74
	l0.93-0.3l0.06-0.97l0.62-10.73l0.72-12.54c4.14-0.27,6.65-0.42,10.47-0.64 M58.89,15.57c-5.33,0.3-8.01,0.47-13.34,0.81
	c-0.57,9.81-0.86,14.72-1.45,24.53c-4.77,1.56-7.16,2.35-11.94,3.94c0.72-11.08,1.05-16.65,1.76-27.69c-5.33,0.37-8,0.57-13.33,0.98
	c-0.86,12.52-1.3,18.78-2.17,31.31l-4.41,1.49c-0.38,5.44-0.58,8.17-0.97,13.61l4.44-1.49c-0.18,2.56-0.35,4.96-0.5,7.24
	c-1.03,14.82-1.68,24.31-2.84,41.05c5.54-0.43,8.32-0.63,13.86-1.01c0.92-14.4,1.83-28.81,2.74-43.22c0.18-2.9,0.37-5.79,0.55-8.69
	c4.81-1.59,7.24-2.37,12.02-3.94c-0.2,3.42-0.4,6.84-0.6,10.26c-0.87,14.91-1.74,29.82-2.61,44.74c5.56-0.35,8.33-0.53,13.88-0.85
	c0.81-15.39,1.62-30.78,2.42-46.17c0.09-1.69,0.18-3.37,0.27-5.07l-5.49-5.47l5.87-1.88c0.72-13.8,1.09-20.71,1.82-34.51
	L58.89,15.57z"/>
</svg>
