<svg id="Layer_11" data-name="Layer 11" xmlns="http://www.w3.org/2000/svg" viewBox="0 0 498.6 218.48"><defs><style>.cls-1{fill:blue;}.cls-2{fill:#000089;}.cls-3{fill:#f92828;}</style></defs><path d="M716.22,576.65l-94.42-7.93-17.42,21c-51-3.23-96.2-4.36-117.41-4.74v-.2l-5,.05-2.68,0-2.67,0-5,0V585c-21.21.38-66.4,1.51-117.41,4.74l-17.42-21-94.42,7.93-12.4,165,78.48,45.53H361.7l16.86-34.93c3.3-1.83,13.45-7.09,30.29-12.41a234.26,234.26,0,0,1,140.81,0c16.89,5.32,27.1,10.59,30.41,12.43l16.86,34.92h53.21l78.48-45.53Z" transform="translate(-230.01 -568.72)"/><path class="cls-1" d="M312.21,589.66c-7.37.42-11.06.65-18.43,1.12-.79,13.56-1.19,20.34-2,33.89-6.59,2.16-9.89,3.25-16.5,5.45,1-15.31,1.45-23,2.43-38.26-7.37.51-11.05.79-18.42,1.35-1.19,17.3-1.79,25.95-3,43.26l-6.09,2.06c-.53,7.52-.8,11.29-1.34,18.81l6.13-2.06c-.25,3.54-.48,6.85-.69,10-1.42,20.47-2.32,33.58-3.92,56.72,7.66-.59,11.49-.87,19.15-1.4q1.9-29.85,3.79-59.71.38-6,.76-12c6.64-2.19,10-3.28,16.6-5.44q-.42,7.08-.83,14.17-1.81,30.9-3.61,61.81c7.68-.49,11.51-.73,19.18-1.18q1.68-31.89,3.35-63.79c.12-2.33.25-4.65.37-7l-7.58-7.56,8.11-2.6C310.71,618.27,311.2,608.73,312.21,589.66Z" transform="translate(-230.01 -568.72)"/><path class="cls-1" d="M331,614.86l-11.89,12c-.3,6-.44,8.92-.74,14.88L314.68,643c-.23,4.33-.34,6.61-.55,10.71,0,.25,0,.49,0,.75l3.73-1.19c-.81,16.25-1.22,24.37-2,40.61l11.61-.61c.78-16.77,1.17-25.49,1.91-41.64,0-.65.07-1.31.1-2,4-1.26,6.06-1.9,10.09-3.14-.06,1.35-.11,2.65-.17,3.9-.68,16-1.08,25.21-1.81,42.37,4.64-.22,7-.33,11.6-.53l1.71-43.11q.69-17.62,1.39-35.23C343.75,614.23,339.5,614.42,331,614.86Zm-1.08,23.28c.17-3.62.26-5.44.43-9.07,1.14-1.17,1.72-1.74,2.86-2.9l7.17-.35c-.16,3.67-.24,5.51-.39,9.19Z" transform="translate(-230.01 -568.72)"/><path class="cls-1" d="M380.68,612.75l-.2,6.65-9.82-2.29c-4.49-1.05-6.75-1.56-11.23-2.6l-3.59-.81-.45,11.45L359,626c-.32,8.55-.59,15.71-.84,22.39-.52,13.92-1,25.71-1.61,43.54l11.61-.46c.6-18.11,1-29.69,1.48-44.15.19-5.62.4-11.68.63-18.72,3.94.9,5.9,1.36,9.84,2.28h0c-.18,5.79-.34,10.89-.48,15.62-.46,15-.8,26.32-1.36,44.62,4.65-.16,7-.23,11.62-.37q.6-22.55,1.21-45.09.45-16.62.9-33.22Z" transform="translate(-230.01 -568.72)"/><path class="cls-1" d="M418.7,611.73c-.09,5.46-.14,8.18-.24,13.65-2,2-3,3-5.07,5.08l-4.86-4.87.3-13.65c-6,.15-9,.23-15,.4-.13,4.58-.19,6.86-.31,11.45l3.65-.11-.15,6c4.15,4.26,6.24,6.39,10.43,10.68,0,1.47-.06,2.88-.09,4.25-.38,17.23-.6,27.15-1,45.65,4.65-.12,7-.17,11.62-.26.34-18.59.53-28.55.84-46,0-1.29.06-2.62.08-4,4.36-4.44,6.53-6.67,10.86-11.1.1-7,.16-10.47.26-17.44C425.51,611.59,423.24,611.64,418.7,611.73Z" transform="translate(-230.01 -568.72)"/><path class="cls-1" d="M467.6,622.58c0-4.58,0-6.86,0-11.43-14.48,0-21.72.11-36.2.34-.07,4.58-.1,6.86-.16,11.44l3.64,0-.2,14.86c-1.47.4-2.2.61-3.67,1,0,1.87-.05,3.36-.08,4.8,0,2,0,3.94-.09,6.63l3.69-1c-.15,11.64-.23,17.47-.39,29.11l-3.71.06c-.06,4.57-.1,6.86-.16,11.43,14.83-.23,22.25-.3,37.08-.36,0-11.17.06-16.75.09-27.92-4.6,0-6.91,0-11.52.06-.05,6.6-.06,9.89-.1,16.49l-10.11.09c.13-12.86.2-19.29.33-32.14,4-1.11,6-1.65,10-2.74v-.36c0-4.33.05-6.62.08-11.08-4,1.09-6,1.63-10,2.74.05-4.73.07-7.1.12-11.83C454.82,622.64,459.07,622.61,467.6,622.58Z" transform="translate(-230.01 -568.72)"/><path class="cls-1" d="M526.44,648.69c-4.58,1.14-6.87,1.71-11.44,2.87.12,10.66.19,16,.31,26.65l-7.3-.08-2.82-2.79c-.11-13.26-.18-22.11-.27-32.4,0-5.21-.09-10.79-.15-17.5,1.09-1.09,1.63-1.63,2.71-2.73l7.18.09.2,17.32c4.56-1.16,6.85-1.73,11.4-2.86-.16-10.29-.23-15.44-.39-25.73-8.49-.15-12.74-.2-21.22-.28-4.5,4.54-6.75,6.8-11.29,11.35,0,7.77.07,14.18.1,20.19.06,11.12.11,20.83.18,35.22l11.67,11.53c8.7.08,13.05.13,21.75.27C526.81,673.37,526.68,665.14,526.44,648.69Z" transform="translate(-230.01 -568.72)"/><path class="cls-1" d="M564.34,645.4c-.27-9.88-.54-19.82-.89-33-8.48-.25-12.73-.37-21.21-.55l-11.15,11.2c.13,7.81.24,14.47.34,20.65.26,15,.46,27.27.78,46.21,8.69.16,13,.26,21.74.48l11.31-11.11C564.89,665.71,564.61,655.58,564.34,645.4Zm-13.45,33.48-7.29-.17c0-1.1,0-1.66-.06-2.76-.27-13-.44-21.74-.64-31.75-.12-5.4-.24-11.16-.38-18.15l2.69-2.7,7.18.17c0,1.11,0,1.66.06,2.76.16,7.11.29,13,.42,18.43.24,9.91.45,18.62.75,31.47Z" transform="translate(-230.01 -568.72)"/><path class="cls-1" d="M604.72,649.1l-.38-.38-4.7-4.72,4.84-1.09-1.15-29c-14.47-.62-21.71-.9-36.18-1.34.13,4.57.19,6.86.32,11.43l3.64.12.45,14.86-3.65.86c.07,2.35.12,4.1.17,5.87s.1,3.36.16,5.57l3.65-.85c.48,16.23.71,24.33,1.19,40.57l11.61.39c-.57-17.44-.86-26.16-1.43-43.61l3-.69,6.89-1.57c0,.74.05,1.47.08,2.18.62,17.09.95,26.31,1.58,44.08l11.62.48C605.75,675,605.4,666.35,604.72,649.1Zm-21.84-12.8c-.15-4.74-.23-7.1-.39-11.84,4,.15,6,.21,9.91.37.14,3.69.2,5.52.34,9.2C588.8,634.93,586.82,635.38,582.88,636.3Z" transform="translate(-230.01 -568.72)"/><path class="cls-1" d="M645.75,653.86c-.31-6.07-.66-12.58-1.07-20.33-4.49,1-6.74,1.43-11.23,2.4l-9.82,2.13c-.22-4.73-.33-7.1-.54-11.84,8.51.43,12.77.66,21.27,1.15l-.59-11.46c-14.47-.83-21.7-1.2-36.17-1.85.19,4.57.28,6.86.47,11.44l3.65.16c.25,6,.38,8.93.62,14.87l-3.62.81c.13,3.23.22,5.32.31,7.87.05,1.07.09,2.23.15,3.58l3.65-.81,7.07-1.55,4.24-.92c4-.86,5.92-1.28,9.86-2.12.09,1.71.17,3.32.25,4.85.52,10.89.85,17.76,1.45,30-4-.22-6.06-.33-10.09-.52-.29-6.61-.45-9.92-.75-16.52l-11.51-.56c.29,6.61.42,9.91.7,16.51l-3.71-.17c.19,4.58.27,6.87.46,11.45,14.83.66,22.24,1.05,37.06,1.91C647,677.76,646.42,666.83,645.75,653.86Z" transform="translate(-230.01 -568.72)"/><path class="cls-1" d="M707.07,666q-2.57-36.15-5.14-72.3c-13.78-1.08-20.67-1.58-34.46-2.5-6.92,7-10.39,10.55-17.4,17.62q1.26,23.06,2.5,46.11,1.74,31.88,3.47,63.74c14.36.86,21.54,1.33,35.88,2.37,7.18-7,10.74-10.44,17.82-17.37Q708.42,684.82,707.07,666Zm-21,35.91-12-.83c-.1-1.82-.15-2.72-.26-4.54l-2.31-38.37q-1.32-21.81-2.63-43.64c1.67-1.7,2.51-2.55,4.19-4.23,4.67.31,7,.48,11.68.82l.3,4.54q1.49,22.92,3,45.83,1.17,18.1,2.36,36.2Z" transform="translate(-230.01 -568.72)"/><path class="cls-2" d="M254.33,665.26q9-2.29,19-4.39-1.89,29.85-3.79,59.71c-7.66.53-11.49.81-19.15,1.4C252,698.84,252.91,685.73,254.33,665.26Z" transform="translate(-230.01 -568.72)"/><path class="cls-2" d="M289.88,657.64Q299,656,308.8,654.48q-1.68,31.89-3.35,63.79c-7.67.45-11.5.69-19.18,1.18Q288.09,688.54,289.88,657.64Z" transform="translate(-230.01 -568.72)"/><path class="cls-2" d="M314.13,653.67q7.44-1.08,15.19-2.08c-.74,16.15-1.13,24.87-1.91,41.64l-11.61.61c.8-16.24,1.21-24.36,2-40.61l-3.73,1.19C314.1,654.16,314.12,653.92,314.13,653.67Z" transform="translate(-230.01 -568.72)"/><path class="cls-2" d="M339.34,650.36q5.69-.66,11.5-1.27l-1.71,43.11c-4.64.2-7,.31-11.6.53C338.26,675.57,338.66,666.36,339.34,650.36Z" transform="translate(-230.01 -568.72)"/><path class="cls-2" d="M358.16,648.35q5.67-.57,11.48-1.07c-.48,14.46-.88,26-1.48,44.15l-11.61.46C357.21,674.06,357.64,662.27,358.16,648.35Z" transform="translate(-230.01 -568.72)"/><path class="cls-2" d="M379.65,646.46q5.69-.45,11.47-.84-.6,22.54-1.21,45.09c-4.65.14-7,.21-11.62.37C378.85,672.78,379.19,661.42,379.65,646.46Z" transform="translate(-230.01 -568.72)"/><path class="cls-2" d="M407.39,644.62q5.67-.3,11.45-.56c-.31,17.4-.5,27.36-.84,46-4.65.09-7,.14-11.62.26C406.79,671.77,407,661.85,407.39,644.62Z" transform="translate(-230.01 -568.72)"/><path class="cls-2" d="M456,661.56c4.61,0,6.92,0,11.52-.06,0,11.17-.05,16.75-.09,27.92-14.83.06-22.25.13-37.08.36.06-4.57.1-6.86.16-11.43l3.71-.06c.16-11.64.24-17.47.39-29.11l-3.69,1c0-2.69.07-4.59.09-6.63q12.41-.45,25.11-.67v.36c-4,1.09-6,1.63-10,2.74-.13,12.85-.2,19.28-.33,32.14l10.11-.09C455.89,671.45,455.9,668.16,456,661.56Z" transform="translate(-230.01 -568.72)"/><path class="cls-2" d="M526.44,648.69c.24,16.45.37,24.68.62,41.12-8.7-.14-13-.19-21.75-.27L493.64,678c-.07-14.39-.12-24.1-.18-35.22,3.84,0,7.65.08,11.46.15.09,10.29.16,19.14.27,32.4l2.82,2.79,7.3.08c-.12-10.67-.19-16-.31-26.65C519.57,650.4,521.86,649.83,526.44,648.69Z" transform="translate(-230.01 -568.72)"/><path class="cls-2" d="M565.26,679.28,554,690.39c-8.69-.22-13.05-.32-21.74-.48-.32-18.94-.52-31.18-.78-46.21,3.85.15,7.68.32,11.47.5.2,10,.37,18.77.64,31.75,0,1.1,0,1.66.06,2.76l7.29.17,2.73-2.7c-.3-12.85-.51-21.56-.75-31.47,3.85.22,7.69.45,11.47.69C564.61,655.58,564.89,665.71,565.26,679.28Z" transform="translate(-230.01 -568.72)"/><path class="cls-2" d="M586.26,647l-3,.69c.57,17.45.86,26.17,1.43,43.61L573.08,691c-.48-16.24-.71-24.34-1.19-40.57l-3.65.85c-.06-2.21-.12-3.9-.16-5.57Q577.31,646.28,586.26,647Z" transform="translate(-230.01 -568.72)"/><path class="cls-2" d="M604.72,649.1c.68,17.25,1,25.87,1.71,43.11l-11.62-.48c-.63-17.77-1-27-1.58-44.08q5.63.52,11.11,1.07Z" transform="translate(-230.01 -568.72)"/><path class="cls-2" d="M612.83,652l-3.65.81c-.06-1.35-.1-2.51-.15-3.58q5.51.59,10.87,1.22Z" transform="translate(-230.01 -568.72)"/><path class="cls-2" d="M645.75,653.86c.67,13,1.25,23.9,2.11,40.46-14.82-.86-22.23-1.25-37.06-1.91-.19-4.58-.27-6.87-.46-11.45l3.71.17c-.28-6.6-.41-9.9-.7-16.51l11.51.56c.3,6.6.46,9.91.75,16.52,4,.19,6.06.3,10.09.52-.6-12.22-.93-19.09-1.45-30C638.15,652.76,642,653.29,645.75,653.86Z" transform="translate(-230.01 -568.72)"/><path class="cls-2" d="M709.74,703.64c-7.08,6.93-10.64,10.4-17.82,17.37-14.34-1-21.52-1.51-35.88-2.37q-1.72-31.87-3.47-63.74,9.78,1.53,18.94,3.24l2.31,38.37c.11,1.82.16,2.72.26,4.54l12,.83,4.31-4.22q-1.18-18.09-2.36-36.2,10,2.14,19,4.51Q708.41,684.81,709.74,703.64Z" transform="translate(-230.01 -568.72)"/><path class="cls-1" d="M310.12,591.76c-.46,8.63-.81,15.32-1.16,22s-.7,13.38-1.16,22.07l-1.4.45L301,638.06l-3.08,1,2.28,2.29,5.41,5.39,1.55,1.54c0,.87-.09,1.74-.14,2.61l-.18,3.5-1.67,31.82-1.59,30.2c-5.94.35-9.6.58-15.19.94q.8-13.83,1.61-27.65l1.86-31.94.41-6.94.42-7.23.17-2.89-2.75.9c-6.63,2.16-10,3.25-16.61,5.44l-1.27.42-.08,1.33q-.19,3-.38,6t-.38,6q-1.83,29-3.68,58c-5.83.4-9.5.68-15.17,1.11l1.22-17.58c.87-12.51,1.59-23,2.55-36.86l.27-4,.42-6,.2-2.95-2.8.94-3.32,1.11c.38-5.3.63-8.86,1-14.54,1.68-.58,2.85-1,4.84-1.64l1.25-.42.09-1.32,1.5-21.63,1.38-19.92c5.52-.42,9-.68,14.45-1.06-.89,13.84-1.37,21.46-2.29,36l-.18,2.92,2.77-.92.81-.27c6-2,9.37-3.11,15.69-5.17l1.28-.42.08-1.34.86-14.83,1-17.32c5.72-.37,9.19-.58,14.47-.88m2.09-2.1c-7.37.42-11.06.65-18.43,1.12-.79,13.56-1.19,20.34-2,33.89-6.59,2.16-9.89,3.25-16.5,5.45,1-15.31,1.45-23,2.43-38.26-7.37.51-11.05.79-18.42,1.35-1.19,17.3-1.79,25.95-3,43.26l-6.09,2.06c-.53,7.52-.8,11.29-1.34,18.81l6.13-2.06c-.25,3.54-.48,6.85-.69,10-1.42,20.47-2.32,33.58-3.92,56.72,7.66-.59,11.49-.87,19.15-1.4q1.9-29.85,3.79-59.71.38-6,.76-12c6.64-2.19,10-3.28,16.6-5.44q-.42,7.08-.83,14.17-1.81,30.9-3.61,61.81c7.68-.49,11.51-.73,19.18-1.18q1.68-31.89,3.35-63.79c.12-2.33.25-4.65.37-7l-7.58-7.56,8.11-2.6c1-19.07,1.5-28.61,2.51-47.68Z" transform="translate(-230.01 -568.72)"/><path class="cls-1" d="M350.17,615.93l-.62,15.82L348.87,649q-.45,11-.88,22.07-.37,9.61-.76,19.23l-7.64.34c.33-7.65.59-13.73.85-19.71.27-6.36.54-12.6.88-20.49,0-.76.07-1.54.1-2.34l.07-1.56.12-2.8-2.68.82-10.1,3.15-1.32.41-.06,1.38c0,.67-.06,1.32-.1,2l-.51,11.07c-.43,9.51-.79,17.25-1.32,28.78l-7.64.4c.72-14.49,1.12-22.55,1.86-37.39l.05-1,.14-2.84-2.71.86-1,.32.07-1.46c.1-1.88.18-3.57.3-5.78l.76-.24,1.65-.52,1.3-.41.07-1.37.42-8.49.28-5.64,10.83-11c7.07-.36,11.16-.55,18.28-.86m-22.33,24.94,2.69-.84,3.35-1,6.71-2.09,1.33-.41.06-1.39.36-8.38,0-.82.1-2.16-2.16.11h-.18l-7,.33-.77,0-.55.55c-.57.58-1,1-1.42,1.45L329,627.68l-.53.54,0,.76-.21,4.69-.21,4.38-.13,2.82m24.39-27c-8.48.37-12.73.56-21.21,1l-11.89,12c-.3,6-.44,8.92-.74,14.88L314.68,643c-.23,4.33-.34,6.61-.55,10.71,0,.25,0,.49,0,.75l3.73-1.19c-.81,16.25-1.22,24.37-2,40.61l11.61-.61c.78-16.77,1.17-25.49,1.91-41.64,0-.65.07-1.31.1-2,4-1.26,6.06-1.9,10.09-3.14-.06,1.35-.11,2.65-.17,3.9-.68,16-1.08,25.21-1.81,42.37,4.64-.22,7-.33,11.6-.53l1.71-43.11q.69-17.62,1.39-35.23Zm-22.29,24.28c.17-3.62.26-5.44.43-9.07,1.14-1.17,1.72-1.74,2.86-2.9l7.17-.35c-.16,3.67-.24,5.51-.39,9.19l-10.07,3.13Z" transform="translate(-230.01 -568.72)"/><path class="cls-1" d="M390,614.44q-.44,15.55-.84,31.13l-.52,19.14L388,688.79l-7.65.24c.4-13.33.7-23,1-33.42l.28-9.09c.15-4.73.31-9.83.48-15.62l0-2h-1.81l-9.62-2.23-2.34-.54-.08,2.4L368,637l-.34,10.2-.54,16.08c-.27,7.88-.54,16-.88,26.24l-7.65.3c.58-15.61,1-26.6,1.44-38.92l.09-2.49c.26-6.67.52-13.84.84-22.39l.06-1.64-1.6-.36-1.8-.4-.2,0,.29-7.43,1.27.29,4.07.94,7.15,1.65,6.66,1.56,3.16.73,2.34.55.08-2.4c.07-2,.1-3.21.15-4.8l7.39-.23m2-2-11.34.35-.2,6.65-9.82-2.29c-4.49-1.05-6.75-1.56-11.23-2.6l-3.59-.81-.45,11.45L359,626c-.32,8.55-.59,15.71-.84,22.39-.52,13.92-1,25.71-1.61,43.54l11.61-.46c.6-18.11,1-29.69,1.48-44.15.19-5.62.4-11.68.63-18.72,3.94.9,5.9,1.36,9.84,2.28h0c-.18,5.79-.34,10.89-.48,15.62-.46,15-.8,26.32-1.36,44.62,4.65-.16,7-.23,11.62-.37q.6-22.55,1.21-45.09.45-16.62.9-33.22Z" transform="translate(-230.01 -568.72)"/><path class="cls-1" d="M428,613.53c0,2.51-.07,4.59-.1,6.66,0,2.42-.08,4.85-.12,7.95-4,4.07-6.14,6.29-10.31,10.54l-.55.56V640c0,1.38-.05,2.7-.08,4l-.37,20.06c-.13,7.32-.27,14.55-.44,24l-7.66.17c.39-17.19.6-27,1-43.57,0-1.38.06-2.79.09-4.26l0-.83-.58-.59L399,628.91l.06-2.18.07-3v-2.08l-2.08.05-1.51,0c.07-2.73.12-4.72.2-7.49l11-.29-.1,4.78-.15,6.8,0,.84.59.6,4.86,4.87,1.4,1.39,1.4-1.39,3.63-3.64,1.44-1.45.56-.56v-.8l.1-5.38.11-6.37h.29l7.11-.13m2-2c-4.53.07-6.8.12-11.34.21-.09,5.46-.14,8.18-.24,13.65-2,2-3,3-5.07,5.08l-4.86-4.87.3-13.65c-6,.15-9,.23-15,.4-.13,4.58-.19,6.86-.31,11.45l3.65-.11-.15,6c4.15,4.26,6.24,6.39,10.43,10.68,0,1.47-.06,2.88-.09,4.25-.38,17.23-.6,27.15-1,45.65,4.65-.12,7-.17,11.62-.26.34-18.59.53-28.55.84-46,0-1.29.06-2.62.08-4,4.36-4.44,6.53-6.67,10.86-11.1.1-7,.16-10.47.26-17.44Z" transform="translate(-230.01 -568.72)"/><path class="cls-1" d="M465.65,613.13v7.48c-7.29,0-11.46.06-19.35.14l-1.94,0,0,1.94-.06,5.92-.06,5.91,0,2.62,2.53-.7,7.45-2.05,0,3.34,0,4-8.57,2.34-1.43.4,0,1.49-.16,16.08-.16,16.06,0,2h2l10.1-.09,1.95,0v-2c0-5.91.06-9.17.09-14.54l7.58,0c0,9.25-.05,14.71-.08,24-13.24.06-20.46.13-33.11.33,0-1.35,0-2.52.05-3.69s0-2.4.06-3.79l1.8,0,1.91,0,0-1.9.23-16.4.17-12.72,0-2.62-2.53.69-1.16.32c0-1.44,0-2.69.05-4,0-1,.05-2.12.07-3.34l2.24-.63,1.43-.39,0-1.48.11-8.38.08-6.49,0-2-2,0-1.61,0,.06-3.74.05-3.74c12.63-.2,19.66-.27,32.27-.31m2-2c-14.48,0-21.72.11-36.2.34-.07,4.58-.1,6.86-.16,11.44l3.64,0-.2,14.86c-1.47.4-2.2.61-3.67,1,0,1.87-.05,3.36-.08,4.8,0,2,0,3.94-.09,6.63l3.69-1c-.15,11.64-.23,17.47-.39,29.11l-3.71.06c-.06,4.57-.1,6.86-.16,11.43,14.83-.23,22.25-.3,37.08-.36,0-11.17.06-16.75.09-27.92-4.6,0-6.91,0-11.52.06-.05,6.6-.06,9.89-.1,16.49l-10.11.09c.13-12.86.2-19.29.33-32.14,4-1.11,6-1.65,10-2.74v-.36c0-4.33.05-6.62.08-11.08-4,1.09-6,1.63-10,2.74.05-4.73.07-7.1.12-11.83,8.52-.09,12.77-.12,21.3-.15,0-4.58,0-6.86,0-11.43Z" transform="translate(-230.01 -568.72)"/><path class="cls-1" d="M505.46,613.24c7.43.07,11.63.12,18.47.23.06,4.21.11,7.57.16,10.93s.1,6.93.17,11.32l-7.45,1.87-.17-14.81,0-1.93-1.93,0h-.08l-7.11-.09h-.83l-.59.59-1.36,1.37-1.35,1.36-.58.59v1c.05,6.62.1,12.15.14,17.32l.06,7.16c.07,7.58.14,15.12.22,25.23v.82l.57.57,1.41,1.4,1.41,1.39.57.57h.8l2.07,0,5.22,0,2,0,0-2c-.06-5.34-.11-9.34-.15-13.34,0-3.59-.09-7.19-.14-11.76l7.51-1.88.28,18.29.27,18.31c-7.16-.12-11.45-.17-18.92-.24-4.13-4.07-6.43-6.34-10.52-10.39-.07-13.94-.12-23.5-.17-34.4l0-6.81-.06-12.56c4-4,6.19-6.21,10.12-10.17m-.81-2c-4.5,4.54-6.75,6.8-11.29,11.35,0,7.77.07,14.18.1,20.19.06,11.12.11,20.83.18,35.22l11.67,11.53c8.7.08,13.05.13,21.75.27-.25-16.44-.38-24.67-.62-41.12-4.58,1.14-6.87,1.71-11.44,2.87.12,10.66.19,16,.31,26.65l-7.3-.08-2.82-2.79c-.11-13.26-.18-22.11-.27-32.4,0-5.21-.09-10.79-.15-17.5,1.09-1.09,1.63-1.63,2.71-2.73l7.18.09.2,17.32c4.56-1.16,6.85-1.73,11.4-2.86-.16-10.29-.23-15.44-.39-25.73-8.49-.15-12.74-.2-21.22-.28Z" transform="translate(-230.01 -568.72)"/><path class="cls-1" d="M543,613.84c7.21.16,11.42.27,18.48.48l.44,16.31.4,14.83.22,7.81c.2,7.52.42,15.48.68,25.2l-10.1,9.92c-7.5-.19-11.79-.28-19-.42-.16-9.8-.3-17.81-.42-25.45-.11-6.27-.21-12.3-.32-18.85-.06-3.39-.12-6.93-.18-10.72-.05-2.87-.1-5.89-.15-9.09l10-10m8.64,67,.59-.59,1.37-1.35,1.37-1.35.61-.6,0-.85,0-1.42-.71-30.05-.05-2.19c-.12-4.85-.24-10.07-.38-16.25,0-1.1,0-1.65-.06-2.75l0-1.89-1.89-.05-2.06,0-5.13-.11-.84,0-.6.59-1.35,1.36-1.33,1.34-.6.6,0,.84c.14,7,.25,12.75.37,18.15.2,10,.38,18.77.65,31.74,0,1.12,0,1.67,0,2.79l.06,1.88,1.88,0c2.13,0,3.49.07,5.21.12l2.07.05.84,0m-9.44-69-11.15,11.2c.13,7.81.24,14.47.34,20.65.26,15,.46,27.27.78,46.21,8.69.16,13,.26,21.74.48l11.31-11.11c-.37-13.57-.65-23.7-.92-33.88-.27-9.88-.54-19.82-.89-33-8.48-.25-12.73-.37-21.21-.55Zm8.65,67-7.29-.17c0-1.1,0-1.66-.06-2.76-.27-13-.44-21.74-.64-31.75-.12-5.4-.24-11.16-.38-18.15l2.69-2.7,7.18.17c0,1.11,0,1.66.06,2.76.16,7.11.29,13,.42,18.43.24,9.91.45,18.62.75,31.47l-2.73,2.7Z" transform="translate(-230.01 -568.72)"/><path class="cls-1" d="M569.18,614.56c12.8.39,19.92.67,32.24,1.2l.51,12.75.51,12.84-1,.22-2.24.5-3.49.79,2.52,2.53,1.35,1.36c1.09,1.09,1.95,2,3.19,3.2l.84,21.38.75,18.81-7.31-.3h-.34c-.37-10.36-.64-17.83-.93-26l-.58-16.27c0-.37,0-.74,0-1.12s0-.7,0-1.06L595,643l-2.31.53-5.16,1.17-1.74.4-.8.18-2.2.51-1.59.36.06,1.63,1.36,41.49L575,689l-.84-28.6-.29-10.11-.09-2.4-2.34.54-1.3.3v-.31c0-1,0-1.92-.08-2.85,0-1.34-.07-2.66-.12-4.25l.26-.06,1.82-.43,1.57-.37-.05-1.61-.23-7.74-.21-7.13-.06-1.85-1.85-.06-1.79-.06-.11-3.85-.1-3.63M581,638.77l2.34-.55c3.94-.92,5.91-1.37,9.85-2.27l1.59-.36-.06-1.64c-.07-1.86-.12-3.25-.17-4.64s-.09-2.73-.16-4.55l-.07-1.83-1.83-.07-7.12-.27-2.8-.11-2.12-.08.07,2.12.2,5.84.2,6,.08,2.41m-13.84-26.25c.13,4.57.19,6.86.32,11.43l3.64.12.45,14.86-3.65.86c.07,2.35.12,4.1.17,5.87s.1,3.36.16,5.57l3.65-.85c.48,16.23.71,24.33,1.19,40.57l11.61.39c-.57-17.44-.86-26.16-1.43-43.61l3-.69,6.89-1.57c0,.74.05,1.47.08,2.18.62,17.09.95,26.31,1.58,44.08l11.62.48c-.68-17.24-1-25.86-1.71-43.11l-.38-.38-4.7-4.72,4.84-1.09-1.15-29c-14.47-.62-21.71-.9-36.18-1.34Zm15.73,23.78c-.15-4.74-.23-7.1-.39-11.84,4,.15,6,.21,9.91.37.14,3.69.2,5.52.34,9.2-3.94.9-5.92,1.35-9.86,2.27Z" transform="translate(-230.01 -568.72)"/><path class="cls-1" d="M609.66,616.13c12.93.58,20,1,32.23,1.65l.2,4,.18,3.53c-7.08-.41-11.32-.63-19.08-1l-2.18-.11.1,2.18.55,11.84.1,2.33,2.29-.49,4.92-1.07,4.89-1.06,9-1.92.45,8.48.5,9.54c.64,12.39,1.19,22.91,2,38.26-13.15-.76-20.36-1.13-33.08-1.7l-.15-3.77L612.4,683l.45,0,1.11.06,2.15.1-.09-2.16c-.24-5.85-.38-9.1-.6-14.35l7.55.36.29,6.33c.12,2.53.23,5,.38,8.39l.08,1.8,1.8.09c4,.2,6.05.3,10.07.52l2.19.12-.11-2.19c-.49-9.89-.79-16.28-1.17-24.13l-.28-5.85-.11-2.11-.14-2.74-.12-2.32-2.26.49-9.87,2.12-1.93.42-2.32.5-3.87.85-3.2.7-1.34.3c0-.42,0-.83,0-1.21-.06-1.46-.11-2.76-.17-4.21l-.08-2,.2,0,1.81-.41,1.61-.36-.06-1.65-.31-7.23-.32-7.64-.07-1.82-1.82-.07-1.82-.08h0l-.16-3.76-.15-3.72m-2.06-2.07c.19,4.57.28,6.86.47,11.44l3.65.16c.25,6,.38,8.93.62,14.87l-3.62.81c.13,3.23.22,5.32.31,7.87.05,1.07.09,2.23.15,3.58l3.65-.81,7.07-1.55,4.24-.92c4-.86,5.92-1.28,9.86-2.12.09,1.71.17,3.32.25,4.85.52,10.89.85,17.76,1.45,30-4-.22-6.06-.33-10.09-.52-.29-6.61-.45-9.92-.75-16.52l-11.51-.56c.29,6.61.42,9.91.7,16.51l-3.71-.17c.19,4.58.27,6.87.46,11.45,14.83.66,22.24,1.05,37.06,1.91-.86-16.56-1.44-27.49-2.11-40.46-.31-6.07-.66-12.58-1.07-20.33-4.49,1-6.74,1.43-11.23,2.4l-9.82,2.13c-.22-4.73-.33-7.1-.54-11.84,8.51.43,12.77.66,21.27,1.15l-.59-11.46c-14.47-.83-21.7-1.2-36.17-1.85Z" transform="translate(-230.01 -568.72)"/><path class="cls-1" d="M668.24,593.2c12.31.82,19,1.31,31.84,2.3q2.52,35.31,5,70.61.66,9.42,1.34,18.83.63,9,1.27,17.93c-6.33,6.19-9.78,9.55-16.53,16.11-13.22-1-20.25-1.42-33.26-2.21l-3.37-62q-1.23-22.63-2.46-45.24c6.38-6.44,9.85-9.95,16.15-16.36m18.6,110.71.63-.62.08-.07c1.68-1.64,2.54-2.48,4.23-4.15l.65-.63-.06-.9v-.07q-1.17-18.08-2.35-36.14l-1.46-22.27L687,615.5l-.3-4.54-.11-1.72-1.72-.12c-4.67-.34-7-.51-11.69-.82l-.9-.07-.63.64c-1.69,1.7-2.53,2.55-4.2,4.25l-.61.62,0,.88q1.3,21.81,2.62,43.64l1.12,18.59,1.2,19.78.13,2.26.13,2.28.11,1.73L674,703l2.2.15c3.46.23,5.79.39,9.8.68l.89.06M667.47,591.17c-6.92,7-10.39,10.55-17.4,17.62q1.26,23.06,2.5,46.11,1.74,31.88,3.47,63.74c14.36.86,21.54,1.33,35.88,2.37,7.18-7,10.74-10.44,17.82-17.37q-1.32-18.82-2.67-37.67-2.57-36.15-5.14-72.3c-13.78-1.08-20.67-1.58-34.46-2.5Zm18.62,110.71-12-.83c-.1-1.82-.15-2.72-.26-4.54l-2.31-38.37q-1.32-21.81-2.63-43.64c1.67-1.7,2.51-2.55,4.19-4.23,4.67.31,7,.48,11.68.82l.3,4.54q1.49,22.92,3,45.83,1.17,18.1,2.36,36.2l-4.31,4.22Z" transform="translate(-230.01 -568.72)"/><path d="M609.89,721.45S588.13,694.29,587,693.33c-.95-.81-81-1.49-104.5-1.68v0l-2.84,0-3.57,0v0c-23.49.19-103.54.87-104.49,1.68-1.12,1-22.87,28.12-22.87,28.12l-7.37,20.65,19.49,16.13,59.31-5.88a601.74,601.74,0,0,1,118.29,0c29.64,2.92,59.29,5.87,59.29,5.87l19.5-16.13Z" transform="translate(-230.01 -568.72)"/><path class="cls-3" d="M373.37,727.09l-4.19.78,1-4q6.09-1.15,12.19-2.2l-.91,4-4.2.73q-1.42,5.93-2.83,11.83l-4,.72Q371.91,733,373.37,727.09Z" transform="translate(-230.01 -568.72)"/><path class="cls-3" d="M403.32,718.49c3-.4,4.44-.59,7.4-1a3.43,3.43,0,0,1,3.18,1.11,3.91,3.91,0,0,1,.88,3.38,6.52,6.52,0,0,1-1.44,3.06,7.63,7.63,0,0,1-2.8,2.19c1.25,2.64,2.54,5.28,3.85,7.89l-4.49.52c-1.56-3-2.33-4.57-3.82-7.61l-.68.09c-.39,2.18-.58,3.27-1,5.45l-4,.54Zm2.8,3.47.31.39-.33,1.88,3.56-.45a1.21,1.21,0,0,0,.75-.45,1.83,1.83,0,0,0,.43-.84,1,1,0,0,0-.17-.75.62.62,0,0,0-.62-.28C408.48,721.65,407.69,721.75,406.12,722Z" transform="translate(-230.01 -568.72)"/><path class="cls-3" d="M439.25,730.06l-4.29.34q3.74-8,7.36-16l2.74-.2q2.08,7.6,4.33,15.15l-4.26.26c-.23-.75-.34-1.13-.57-1.89l-4.39.31C439.8,728.87,439.62,729.27,439.25,730.06Zm3.75-7.89,0-.29c-.68,1.49-1,2.23-1.71,3.72l2.58-.2C443.53,724.11,443.35,723.46,443,722.17Z" transform="translate(-230.01 -568.72)"/><path class="cls-3" d="M472.2,713l3.91-.08-.39,15.46-4.05.09Q471.92,720.72,472.2,713Z" transform="translate(-230.01 -568.72)"/><path class="cls-3" d="M498,728.35q-.17-7.74-.34-15.47l3.27.07q2.71,4.06,5.47,8.09l-.33-8,3.92.12.78,15.48-3.41-.12c-1.87-2.68-3.72-5.39-5.55-8.1l.25,8Z" transform="translate(-230.01 -568.72)"/><path class="cls-3" d="M531.47,714.35l3.91.28q.82,7.77,1.66,15.53l-4-.3Q532.23,722.11,531.47,714.35Z" transform="translate(-230.01 -568.72)"/><path class="cls-3" d="M559.23,732.24l-2.4-15.59,3.26.37c2.16,2.9,4.32,5.78,6.5,8.67-.55-3.22-.83-4.83-1.38-8.05,1.56.19,2.33.29,3.89.5l2.82,15.64-3.38-.43q-3.31-4.33-6.58-8.69l1.3,8Z" transform="translate(-230.01 -568.72)"/><path class="cls-3" d="M595.81,735.16a11.74,11.74,0,0,1-3.58-6,5.48,5.48,0,0,1,1-5.19,5,5,0,0,1,4.92-1.35,10.86,10.86,0,0,1,4.17,1.79,14.64,14.64,0,0,1,3.58,3.49L603,729.26a7.09,7.09,0,0,0-1.8-1.74,5.48,5.48,0,0,0-2.1-.9,2.5,2.5,0,0,0-2.46.67,2.7,2.7,0,0,0-.49,2.57,6,6,0,0,0,1.81,3,5.88,5.88,0,0,0,3,1.65,2.5,2.5,0,0,0,2.6-.77c-.31-1.24-.46-1.86-.77-3.11l3.93.74c.86,3.35,1.29,5,2.14,8.38-1.6-.31-2.4-.46-4-.75l-.13-.56a6.82,6.82,0,0,1-2.82,0A12.08,12.08,0,0,1,595.81,735.16Z" transform="translate(-230.01 -568.72)"/></svg>